<svg xmlns="http://www.w3.org/2000/svg" viewBox="0 0 512 512">
  <defs>
    <linearGradient id="bgGrad" x1="0%" y1="0%" x2="100%" y2="100%">
      <stop offset="0%" style="stop-color:#2196F3"/>
      <stop offset="100%" style="stop-color:#1976D2"/>
    </linearGradient>
    <linearGradient id="rocketGrad" x1="0%" y1="0%" x2="100%" y2="100%">
      <stop offset="0%" style="stop-color:#FFFFFF"/>
      <stop offset="100%" style="stop-color:#E3F2FD"/>
    </linearGradient>
  </defs>
  
  <!-- Background rounded square -->
  <rect x="16" y="16" width="480" height="480" rx="96" ry="96" fill="url(#bgGrad)"/>
  
  <!-- Rocket body -->
  <path d="M256 96 
           C256 96 320 160 320 256 
           C320 320 288 384 256 416 
           C224 384 192 320 192 256 
           C192 160 256 96 256 96Z" 
        fill="url(#rocketGrad)" 
        stroke="#FFFFFF" 
        stroke-width="4"/>
  
  <!-- Rocket window -->
  <circle cx="256" cy="220" r="32" fill="#2196F3" stroke="#FFFFFF" stroke-width="4"/>
  <circle cx="256" cy="220" r="16" fill="#64B5F6"/>
  
  <!-- Left fin -->
  <path d="M192 320 L144 368 L176 368 L192 336 Z" fill="#FFFFFF" opacity="0.9"/>
  
  <!-- Right fin -->
  <path d="M320 320 L368 368 L336 368 L320 336 Z" fill="#FFFFFF" opacity="0.9"/>
  
  <!-- Flame -->
  <ellipse cx="256" cy="400" rx="24" ry="40" fill="#FF9800"/>
  <ellipse cx="256" cy="392" rx="16" ry="28" fill="#FFC107"/>
  <ellipse cx="256" cy="384" rx="8" ry="16" fill="#FFEB3B"/>
  
  <!-- Speed lines -->
  <line x1="120" y1="180" x2="80" y2="140" stroke="#FFFFFF" stroke-width="6" stroke-linecap="round" opacity="0.6"/>
  <line x1="100" y1="220" x2="60" y2="200" stroke="#FFFFFF" stroke-width="6" stroke-linecap="round" opacity="0.6"/>
  <line x1="392" y1="180" x2="432" y2="140" stroke="#FFFFFF" stroke-width="6" stroke-linecap="round" opacity="0.6"/>
  <line x1="412" y1="220" x2="452" y2="200" stroke="#FFFFFF" stroke-width="6" stroke-linecap="round" opacity="0.6"/>
</svg>
